HIERARCHY
ROOT joint_0
{
	OFFSET 0.000000 0.000000 0.000000
	CHANNELS 6 Xposition Yposition Zposition Zrotation Yrotation Xrotation 
	JOINT joint_1
	{
		OFFSET 0.587158 0.057678 95.682007
		CHANNELS 3 Zrotation Yrotation Xrotation
		JOINT joint_2
		{
			OFFSET -7.116699 -0.219910 87.157959
			CHANNELS 3 Zrotation Yrotation Xrotation
			JOINT joint_3
			{
				OFFSET -5.892822 -0.290222 87.151001
				CHANNELS 3 Zrotation Yrotation Xrotation
				JOINT joint_4
				{
					OFFSET 5.544678 -0.099609 123.768066
					CHANNELS 3 Zrotation Yrotation Xrotation
					JOINT joint_5
					{
						OFFSET 41.981201 4.519775 84.257935
						CHANNELS 3 Zrotation Yrotation Xrotation
						End Site
						{
							OFFSET 0.000000 0.000000 0.000000
						}
					}
				}
				JOINT joint_6
				{
					OFFSET 3.940918 -26.976501 69.308105
					CHANNELS 3 Zrotation Yrotation Xrotation
					JOINT joint_7
					{
						OFFSET 4.776123 -152.592468 -16.842041
						CHANNELS 3 Zrotation Yrotation Xrotation
						JOINT joint_8
						{
							OFFSET 54.421875 -30.424072 -248.864014
							CHANNELS 3 Zrotation Yrotation Xrotation
							JOINT joint_9
							{
								OFFSET 42.120117 -33.387878 -236.524963
								CHANNELS 3 Zrotation Yrotation Xrotation
								End Site
								{
									OFFSET 0.000000 0.000000 0.000000
								}
							}
						}
					}
				}
				JOINT joint_10
				{
					OFFSET 2.312012 26.904114 69.425049
					CHANNELS 3 Zrotation Yrotation Xrotation
					JOINT joint_11
					{
						OFFSET 0.971436 152.197815 -20.626953
						CHANNELS 3 Zrotation Yrotation Xrotation
						JOINT joint_12
						{
							OFFSET 49.954102 28.991455 -249.970093
							CHANNELS 3 Zrotation Yrotation Xrotation
							JOINT joint_13
							{
								OFFSET 48.146973 19.598389 -236.919922
								CHANNELS 3 Zrotation Yrotation Xrotation
								End Site
								{
									OFFSET 0.000000 0.000000 0.000000
								}
							}
						}
					}
				}
			}
		}
	}
	JOINT joint_14
	{
		OFFSET 16.305664 -89.442932 -108.224976
		CHANNELS 3 Zrotation Yrotation Xrotation
		JOINT joint_15
		{
			OFFSET -22.282471 13.437134 -412.904968
			CHANNELS 3 Zrotation Yrotation Xrotation
			JOINT joint_16
			{
				OFFSET -45.426025 14.484802 -445.892029
				CHANNELS 3 Zrotation Yrotation Xrotation
				JOINT joint_17
				{
					OFFSET 173.389404 -9.944031 -76.473001
					CHANNELS 3 Zrotation Yrotation Xrotation
					End Site
					{
						OFFSET 0.000000 0.000000 0.000000
					}
				}
			}
		}
	}
	JOINT joint_18
	{
		OFFSET 13.392822 89.408875 -108.653992
		CHANNELS 3 Zrotation Yrotation Xrotation
		JOINT joint_19
		{
			OFFSET -29.032959 24.483521 -411.977966
			CHANNELS 3 Zrotation Yrotation Xrotation
			JOINT joint_20
			{
				OFFSET -30.530029 28.986328 -446.453018
				CHANNELS 3 Zrotation Yrotation Xrotation
				JOINT joint_21
				{
					OFFSET 170.330078 33.400757 -76.698997
					CHANNELS 3 Zrotation Yrotation Xrotation
					End Site
					{
						OFFSET 0.000000 0.000000 0.000000
					}
				}
			}
		}
	}
}
MOTION
Frames: 17
Frame Time: 0.016667
-1743.656494 900.194763 1060.613037 -15.579890 -0.441728 1.135137 -1.585356 -2.176701 -1.305898 -1.389818 0.396367 0.266191 -1.412217 -0.401090 -0.156627 1.125958 -1.467277 -2.082273 0.000000 0.000000 0.000000 0.936878 2.811767 1.947573 0.121801 2.909091 -0.005298 0.114270 -2.361886 -2.073375 0.000000 0.000000 0.000000 0.171929 3.268712 -1.121269 0.672869 3.306047 1.935644 -0.209267 -1.676612 -0.085052 0.000000 0.000000 0.000000 -22.753189 -0.716159 -4.510191 -22.450107 2.986543 -5.798793 -24.908525 4.235253 -10.366005 0.000000 0.000000 0.000000 -5.811798 -3.029655 -0.558216 -5.393910 3.113250 -0.966035 -5.621083 -0.440699 -2.436915 0.000000 0.000000 0.000000 
-1743.607300 900.261292 1060.614014 -15.589466 -0.439307 1.135577 -1.586654 -2.182461 -1.311142 -1.390583 0.399445 0.267432 -1.413078 -0.403686 -0.157264 1.125770 -1.462186 -2.082643 0.000000 0.000000 0.000000 0.927298 2.814174 1.951324 0.122980 2.910585 -0.001682 0.112818 -2.356778 -2.077679 0.000000 0.000000 0.000000 0.168271 3.270414 -1.120491 0.674624 3.308383 1.945150 -0.207866 -1.667849 -0.082109 0.000000 0.000000 0.000000 -22.746219 -0.728466 -4.508150 -22.440207 2.998655 -5.814760 -24.911513 4.228983 -10.365760 0.000000 0.000000 0.000000 -5.806761 -3.028594 -0.564662 -5.389789 3.110758 -0.963910 -5.616542 -0.439643 -2.435053 0.000000 0.000000 0.000000 
-1743.547974 900.315857 1060.616943 -15.599891 -0.431227 1.135064 -1.587374 -2.195921 -1.315805 -1.390628 0.399554 0.267509 -1.413124 -0.404702 -0.156963 1.125044 -1.457034 -2.081985 0.000000 0.000000 0.000000 0.913766 2.817587 1.952879 0.125124 2.912798 0.007574 0.110685 -2.348941 -2.082829 0.000000 0.000000 0.000000 0.170064 3.274255 -1.120784 0.675878 3.312094 1.951006 -0.207724 -1.665350 -0.082308 0.000000 0.000000 0.000000 -22.741666 -0.739763 -4.505007 -22.433651 3.001104 -5.822362 -24.910841 4.225287 -10.364639 0.000000 0.000000 0.000000 -5.801921 -3.032298 -0.569432 -5.385624 3.107592 -0.960579 -5.611729 -0.438284 -2.433152 0.000000 0.000000 0.000000 
-1743.489136 900.362427 1060.621948 -15.610895 -0.419915 1.134034 -1.587624 -2.213689 -1.320785 -1.389982 0.399299 0.268282 -1.412643 -0.405173 -0.158086 1.122961 -1.451157 -2.078789 0.000000 0.000000 0.000000 0.898582 2.821206 1.954971 0.127873 2.915097 0.019978 0.108326 -2.340309 -2.088360 0.000000 0.000000 0.000000 0.174402 3.279455 -1.120636 0.676673 3.316805 1.953556 -0.208937 -1.668957 -0.086161 0.000000 0.000000 0.000000 -22.738264 -0.751543 -4.500175 -22.428352 2.998852 -5.826908 -24.908596 4.223955 -10.363159 0.000000 0.000000 0.000000 -5.797211 -3.039090 -0.573020 -5.381407 3.103950 -0.956717 -5.606653 -0.435555 -2.431417 0.000000 0.000000 0.000000 
-1743.448242 900.416199 1060.625000 -15.622554 -0.412154 1.133396 -1.587550 -2.224126 -1.326084 -1.389242 0.400017 0.269097 -1.411994 -0.405510 -0.158467 1.121139 -1.446442 -2.075965 0.000000 0.000000 0.000000 0.887152 2.824029 1.955510 0.130844 2.917017 0.031765 0.107917 -2.338358 -2.089902 0.000000 0.000000 0.000000 0.180566 3.283077 -1.122079 0.676604 3.319592 1.952280 -0.210657 -1.676572 -0.090522 0.000000 0.000000 0.000000 -22.734591 -0.763487 -4.496412 -22.422667 2.998782 -5.833977 -24.907655 4.229901 -10.361989 0.000000 0.000000 0.000000 -5.792090 -3.044247 -0.578086 -5.376947 3.102543 -0.951827 -5.601507 -0.433252 -2.429562 0.000000 0.000000 0.000000 
-1743.440063 900.485840 1060.624023 -15.636345 -0.413397 1.133806 -1.585135 -2.215507 -1.331588 -1.386834 0.399427 0.269609 -1.409696 -0.405012 -0.159212 1.118126 -1.446698 -2.070167 0.000000 0.000000 0.000000 0.878401 2.825429 1.955064 0.133866 2.917800 0.040779 0.111254 -2.348723 -2.083170 0.000000 0.000000 0.000000 0.183614 3.282751 -1.124656 0.675608 3.318725 1.947428 -0.213072 -1.690465 -0.095157 0.000000 0.000000 0.000000 -22.728856 -0.774860 -4.495947 -22.414761 3.006088 -5.847058 -24.909150 4.245127 -10.361306 0.000000 0.000000 0.000000 -5.785627 -3.042902 -0.586083 -5.371651 3.103818 -0.946084 -5.595801 -0.431403 -2.427347 0.000000 0.000000 0.000000 
-1743.450073 900.562683 1060.620972 -15.651143 -0.418822 1.134831 -1.582447 -2.198030 -1.338579 -1.384279 0.398734 0.271746 -1.407408 -0.404192 -0.160248 1.115054 -1.447521 -2.064170 0.000000 0.000000 0.000000 0.873956 2.825863 1.953202 0.137098 2.918078 0.049385 0.116485 -2.365252 -2.072160 0.000000 0.000000 0.000000 0.188713 3.280964 -1.128338 0.673768 3.316031 1.938780 -0.216148 -1.708827 -0.100833 0.000000 0.000000 0.000000 -22.722510 -0.786005 -4.497293 -22.406297 3.016018 -5.862312 -24.911599 4.267695 -10.360797 0.000000 0.000000 0.000000 -5.778674 -3.039089 -0.595894 -5.366125 3.107092 -0.939279 -5.590005 -0.429873 -2.425025 0.000000 0.000000 0.000000 
-1743.461060 900.638733 1060.619019 -15.661334 -0.422104 1.134787 -1.581127 -2.183947 -1.343808 -1.383041 0.397694 0.273687 -1.406432 -0.402262 -0.161457 1.112200 -1.444083 -2.059186 0.000000 0.000000 0.000000 0.870291 2.825642 1.952335 0.140182 2.917792 0.058056 0.120193 -2.377334 -2.065070 0.000000 0.000000 0.000000 0.192849 3.280001 -1.133412 0.671347 3.314240 1.926929 -0.218911 -1.724238 -0.106503 0.000000 0.000000 0.000000 -22.718928 -0.796684 -4.497381 -22.400732 3.022229 -5.875185 -24.914666 4.294803 -10.360648 0.000000 0.000000 0.000000 -5.773409 -3.039913 -0.604109 -5.361682 3.113331 -0.933131 -5.585603 -0.428142 -2.423367 0.000000 0.000000 0.000000 
-1743.458374 900.718445 1060.615967 -15.665846 -0.421030 1.133312 -1.581685 -2.176154 -1.345258 -1.383622 0.395358 0.275162 -1.407268 -0.400750 -0.162655 1.110749 -1.433618 -2.057869 0.000000 0.000000 0.000000 0.865783 2.825387 1.952050 0.142986 2.917374 0.066996 0.121137 -2.381146 -2.064925 0.000000 0.000000 0.000000 0.194197 3.282245 -1.139125 0.667753 3.315978 1.907973 -0.221051 -1.734443 -0.111708 0.000000 0.000000 0.000000 -22.718015 -0.807640 -4.496042 -22.397917 3.024853 -5.885194 -24.917987 4.324078 -10.360626 0.000000 0.000000 0.000000 -5.770328 -3.046500 -0.612361 -5.359183 3.121555 -0.924577 -5.582994 -0.426215 -2.422570 0.000000 0.000000 0.000000 
-1743.455688 900.797180 1060.613037 -15.665807 -0.418299 1.130877 -1.584163 -2.172024 -1.345585 -1.385990 0.394521 0.277112 -1.409923 -0.399171 -0.164241 1.109606 -1.419400 -2.057662 0.000000 0.000000 0.000000 0.863194 2.824248 1.952532 0.145680 2.916276 0.076319 0.120533 -2.380286 -2.068530 0.000000 0.000000 0.000000 0.196476 3.285285 -1.145268 0.663366 3.318332 1.884956 -0.222880 -1.741184 -0.117164 0.000000 0.000000 0.000000 -22.719853 -0.817651 -4.494119 -22.398145 3.023962 -5.892449 -24.921863 4.357835 -10.360944 0.000000 0.000000 0.000000 -5.768954 -3.057013 -0.619355 -5.357885 3.132669 -0.916318 -5.581882 -0.424481 -2.422408 0.000000 0.000000 0.000000 
-1743.481201 900.860535 1060.612061 -15.662178 -0.418629 1.127543 -1.587093 -2.163258 -1.348397 -1.388980 0.392392 0.278128 -1.413019 -0.396821 -0.164093 1.106946 -1.400798 -2.055030 0.000000 0.000000 0.000000 0.861235 2.822222 1.953176 0.148568 2.914368 0.087046 0.119632 -2.378437 -2.072490 0.000000 0.000000 0.000000 0.198958 3.286718 -1.151570 0.659398 3.319064 1.864672 -0.224625 -1.747784 -0.122335 0.000000 0.000000 0.000000 -22.725862 -0.821332 -4.492627 -22.403792 3.015142 -5.893635 -24.925655 4.400698 -10.361807 0.000000 0.000000 0.000000 -5.768636 -3.070052 -0.620403 -5.356041 3.150522 -0.915791 -5.581798 -0.423067 -2.422609 0.000000 0.000000 0.000000 
-1743.542358 900.893555 1060.613037 -15.653899 -0.423763 1.122778 -1.590086 -2.148430 -1.353908 -1.392341 0.390687 0.276980 -1.416225 -0.395434 -0.163165 1.100673 -1.376385 -2.046020 0.000000 0.000000 0.000000 0.858055 2.819621 1.955462 0.151997 2.911736 0.100952 0.118181 -2.374902 -2.077444 0.000000 0.000000 0.000000 0.201020 3.285541 -1.156069 0.656274 3.317307 1.849759 -0.226438 -1.752144 -0.129119 0.000000 0.000000 0.000000 -22.737489 -0.817927 -4.490555 -22.416061 2.998559 -5.889577 -24.930926 4.459289 -10.363871 0.000000 0.000000 0.000000 -5.769615 -3.086020 -0.611307 -5.352905 3.178528 -0.928355 -5.582984 -0.422319 -2.423194 0.000000 0.000000 0.000000 
-1743.630737 900.911011 1060.614990 -15.641717 -0.432140 1.117089 -1.593636 -2.129825 -1.361697 -1.396423 0.389475 0.274713 -1.419913 -0.393978 -0.160439 1.092733 -1.348253 -2.034187 0.000000 0.000000 0.000000 0.855417 2.816251 1.957359 0.155858 2.908420 0.117012 0.116451 -2.370852 -2.083282 0.000000 0.000000 0.000000 0.203422 3.282689 -1.160147 0.653427 3.313836 1.836922 -0.228190 -1.756140 -0.135865 0.000000 0.000000 0.000000 -22.753504 -0.807836 -4.489209 -22.434058 2.973975 -5.879166 -24.936266 4.526812 -10.366569 0.000000 0.000000 0.000000 -5.771715 -3.103983 -0.596328 -5.349369 3.212813 -0.948404 -5.585301 -0.422080 -2.424151 0.000000 0.000000 0.000000 
-1743.743896 900.949097 1060.621948 -15.629239 -0.441330 1.110764 -1.596461 -2.110395 -1.368856 -1.399715 0.387847 0.274379 -1.423111 -0.392123 -0.159468 1.084345 -1.313816 -2.022276 0.000000 0.000000 0.000000 0.853344 2.812686 1.957887 0.159383 2.904921 0.131200 0.115790 -2.370314 -2.086648 0.000000 0.000000 0.000000 0.205135 3.278887 -1.166795 0.651309 3.309531 1.827905 -0.230111 -1.763537 -0.141754 0.000000 0.000000 0.000000 -22.771769 -0.788979 -4.491736 -22.457176 2.935993 -5.855401 -24.936100 4.590702 -10.368039 0.000000 0.000000 0.000000 -5.773934 -3.123366 -0.582322 -5.346092 3.247962 -0.966841 -5.587742 -0.420745 -2.425373 0.000000 0.000000 0.000000 
-1743.880737 901.019714 1060.635010 -15.615279 -0.451114 1.103352 -1.598610 -2.090156 -1.372045 -1.402616 0.386428 0.273364 -1.425879 -0.390283 -0.158713 1.076620 -1.275444 -2.012159 0.000000 0.000000 0.000000 0.852453 2.809370 1.954288 0.162721 2.901854 0.143553 0.116952 -2.376104 -2.086350 0.000000 0.000000 0.000000 0.205756 3.274695 -1.177567 0.650193 3.305007 1.823375 -0.232964 -1.779192 -0.148128 0.000000 0.000000 0.000000 -22.794119 -0.753426 -4.500959 -22.489571 2.872331 -5.808496 -24.926560 4.649696 -10.367267 0.000000 0.000000 0.000000 -5.776303 -3.145089 -0.569722 -5.343077 3.284903 -0.983456 -5.590500 -0.419823 -2.426644 0.000000 0.000000 0.000000 
-1744.041626 901.109802 1060.652954 -15.600939 -0.461681 1.095351 -1.600195 -2.070555 -1.375847 -1.404633 0.386547 0.276144 -1.428222 -0.388579 -0.160357 1.068555 -1.230614 -2.002165 0.000000 0.000000 0.000000 0.852536 2.805992 1.949350 0.165639 2.898745 0.153704 0.119333 -2.385793 -2.083109 0.000000 0.000000 0.000000 0.206220 3.269527 -1.190569 0.649765 3.299554 1.822437 -0.236069 -1.798360 -0.154039 0.000000 0.000000 0.000000 -22.818683 -0.709023 -4.514168 -22.527149 2.795287 -5.747989 -24.911790 4.704880 -10.365373 0.000000 0.000000 0.000000 -5.778668 -3.168033 -0.558067 -5.340207 3.322569 -0.998529 -5.593295 -0.418213 -2.428061 0.000000 0.000000 0.000000 
-1744.232544 901.225403 1060.671021 -15.593010 -0.472952 1.088813 -1.599199 -2.049657 -1.380217 -1.404125 0.384251 0.278748 -1.428082 -0.384846 -0.162043 1.060472 -1.178095 -1.993122 0.000000 0.000000 0.000000 0.848347 2.800585 1.942637 0.168811 2.893169 0.163857 0.121523 -2.395808 -2.081727 0.000000 0.000000 0.000000 0.207206 3.261735 -1.205883 0.649434 3.291361 1.823751 -0.238365 -1.814072 -0.157722 0.000000 0.000000 0.000000 -22.838140 -0.676973 -4.527932 -22.557545 2.737590 -5.695711 -24.898823 4.744210 -10.363978 0.000000 0.000000 0.000000 -5.779204 -3.186473 -0.553087 -5.337529 3.351095 -1.004884 -5.594076 -0.412434 -2.429412 0.000000 0.000000 0.000000 
